HIERARCHY
ROOT SpineBase
{
  OFFSET 0.000000 0.000000 0.000000
  CHANNELS 6 Xposition Yposition Zposition Zrotation Xrotation Yrotation
  JOINT SpineMid
  {
    OFFSET -0.000000 33.791658 0.000000
    CHANNELS 3 Zrotation Xrotation Yrotation
    JOINT SpineShoulder
    {
      OFFSET 0.023021 25.091134 -0.879827
      CHANNELS 3 Zrotation Xrotation Yrotation
      JOINT Neck
      {
        OFFSET 0.024426 8.275174 -0.646148
        CHANNELS 3 Zrotation Xrotation Yrotation
        JOINT Head
        {
          OFFSET 1.544519 9.802912 6.113569
          CHANNELS 3 Zrotation Xrotation Yrotation
          End Site
          {
            OFFSET 0 0 0
          }
        }
      }
      JOINT ShoulderLeft
      {
        OFFSET -1.629571 -5.677894 -14.152306
        CHANNELS 3 Zrotation Xrotation Yrotation
        JOINT ElbowLeft
        {
          OFFSET 1.893423 -25.452112 -7.367053
          CHANNELS 3 Zrotation Xrotation Yrotation
          JOINT WristLeft
          {
            OFFSET 6.185621 -29.355606 0.974549
            CHANNELS 3 Zrotation Xrotation Yrotation
            JOINT HandLeft
            {
              OFFSET -1.595599 -4.556507 2.096043
              CHANNELS 3 Zrotation Xrotation Yrotation
              JOINT HandTipLeft
              {
                OFFSET 1.916826 -6.687449 1.230270
                CHANNELS 3 Zrotation Xrotation Yrotation
                End Site
                {
                  OFFSET 0 0 0
                }
              }
              JOINT ThumbLeft
              {
                OFFSET -3.695264 0.119713 1.220093
                CHANNELS 3 Zrotation Xrotation Yrotation
                End Site
                {
                  OFFSET 0 0 0
                }
              }
            }
          }
        }
      }
      JOINT ShoulderRight
      {
        OFFSET 9.900030 -3.817897 12.163588
        CHANNELS 3 Zrotation Xrotation Yrotation
        JOINT ElbowRight
        {
          OFFSET 1.122697 -26.687642 5.418156
          CHANNELS 3 Zrotation Xrotation Yrotation
          JOINT WristRight
          {
            OFFSET 3.776210 -25.857299 1.689129
            CHANNELS 3 Zrotation Xrotation Yrotation
            JOINT HandRight
            {
              OFFSET -1.145828 -2.538984 9.064916
              CHANNELS 3 Zrotation Xrotation Yrotation
              JOINT HandTipRight
              {
                OFFSET 0.249845 -3.522012 0.474638
                CHANNELS 3 Zrotation Xrotation Yrotation
                End Site
                {
                  OFFSET 0 0 0
                }
              }
              JOINT ThumbRight
              {
                OFFSET 0.476176 1.202937 -2.424122
                CHANNELS 3 Zrotation Xrotation Yrotation
                End Site
                {
                  OFFSET 0 0 0
                }
              }
            }
          }
        }
      }
    }
  }
  JOINT HipLeft
  {
    OFFSET -2.570105 1.582934 -7.655525
    CHANNELS 3 Zrotation Xrotation Yrotation
    JOINT KneeLeft
    {
      OFFSET -1.403725 -36.271970 -1.261359
      CHANNELS 3 Zrotation Xrotation Yrotation
      JOINT AnkleLeft
      {
        OFFSET -10.120200 -37.916435 4.591480
        CHANNELS 3 Zrotation Xrotation Yrotation
        JOINT FootLeft
        {
          OFFSET 10.101462 -3.966664 -7.685715
          CHANNELS 3 Zrotation Xrotation Yrotation
          End Site
          {
            OFFSET 0 0 0
          }
        }
      }
    }
  }
  JOINT HipRight
  {
    OFFSET 3.203467 -0.009100 -0.044644
    CHANNELS 3 Zrotation Xrotation Yrotation
    JOINT KneeRight
    {
      OFFSET -0.009215 -34.434107 -8.065033
      CHANNELS 3 Zrotation Xrotation Yrotation
      JOINT AnkleRight
      {
        OFFSET -5.327411 -31.476635 32.675406
        CHANNELS 3 Zrotation Xrotation Yrotation
        JOINT FootRight
        {
          OFFSET 2.427494 -8.926210 1.542144
          CHANNELS 3 Zrotation Xrotation Yrotation
          End Site
          {
            OFFSET 0 0 0
          }
        }
      }
    }
  }
}
MOTION
Frames: 8
Frame Time: 0.033333
-30.147261 81.459210 336.165830 0.000000 0.000000 -52.816249 -0.000000 0.000000 52.816249 -0.000000 0.000000 0.000000 -0.000000 0.000000 0.000000 0.000000 0.000000 0.000000 -0.000000 0.000000 0.000000 -0.000000 0.000000 0.000000 -0.000000 0.000000 0.000000 -0.000000 0.000000 0.000000 0.000000 0.000000 0.000000 0.000000 0.000000 0.000000 -0.000000 0.000000 0.000000 -0.000000 0.000000 0.000000 -0.000000 0.000000 0.000000 -0.000000 0.000000 0.000000 0.000000 0.000000 0.000000 0.000000 0.000000 0.000000 -0.000000 0.000000 52.816249 -0.000000 0.000000 0.000000 -0.000000 0.000000 0.000000 0.000000 0.000000 0.000000 -0.000000 0.000000 52.816249 -0.000000 0.000000 0.000000 -0.000000 0.000000 0.000000 0.000000 0.000000 0.000000
-30.068234 81.402045 336.338238 0.206811 -0.180995 -52.509385 -0.269482 -0.053937 52.509585 -0.000000 0.000000 0.000000 -0.000000 0.000000 0.000000 0.000000 0.000000 0.000000 -0.000000 0.000000 0.000000 -0.000000 0.000000 0.000000 4.796656 0.900359 1.889167 -4.824125 -0.738759 -1.957997 0.000000 0.000000 0.000000 0.000000 0.000000 0.000000 -0.000000 0.000000 0.000000 -0.000000 0.000000 0.000000 -0.000000 0.000000 0.000000 -0.000000 0.000000 0.000000 0.000000 0.000000 0.000000 0.000000 0.000000 0.000000 -0.269482 -0.053937 52.509585 -0.000000 0.000000 0.000000 -0.000000 0.000000 0.000000 0.000000 0.000000 0.000000 -0.269482 -0.053937 52.509585 -0.000000 0.000000 0.000000 1.438146 1.652321 0.676486 0.000000 0.000000 0.000000
-30.005390 81.354236 336.485394 0.384007 -0.329963 -52.240927 -0.496008 -0.101546 52.241593 -0.000000 0.000000 0.000000 -0.000000 0.000000 0.000000 0.000000 0.000000 0.000000 -0.000000 0.000000 0.000000 -0.650136 -0.805935 -0.196169 8.637237 2.528441 3.135021 -8.347293 -2.687498 -3.727479 0.000000 0.000000 0.000000 0.000000 0.000000 0.000000 -0.000000 0.000000 0.000000 -0.000000 0.000000 0.000000 -0.000000 0.000000 0.000000 -0.000000 0.000000 0.000000 0.000000 0.000000 0.000000 0.000000 0.000000 0.000000 -1.342121 0.137974 52.221737 0.329049 -0.815482 0.022467 -0.000000 0.000000 0.000000 0.000000 0.000000 0.000000 0.482071 -0.513623 52.183024 -0.274247 1.025285 0.066274 2.609009 3.195387 1.245496 0.000000 0.000000 0.000000
-29.958731 81.315783 336.607299 0.531813 -0.447122 -52.014822 -0.679712 -0.143983 52.016043 -0.000000 0.000000 0.000000 -0.000000 0.000000 0.000000 0.000000 0.000000 0.000000 -0.000000 0.000000 0.000000 -0.917553 -1.117482 -0.275261 11.046346 3.550008 3.828766 -10.729714 -3.993509 -4.877980 0.000000 0.000000 0.000000 0.000000 0.000000 0.000000 -0.000000 0.000000 0.000000 -0.000000 0.000000 0.000000 -0.000000 0.000000 0.000000 -0.000000 0.000000 0.000000 0.000000 0.000000 0.000000 0.000000 0.000000 0.000000 -1.832522 0.193846 51.988760 0.443818 -1.116310 0.032108 -0.000000 0.000000 0.000000 0.000000 0.000000 0.000000 0.618538 -0.701559 51.941570 -0.887179 0.970694 -0.378385 3.984164 5.033623 2.166944 0.000000 0.000000 0.000000
-29.928255 81.286685 336.703951 0.650421 -0.532656 -51.834543 -0.820699 -0.182249 51.836261 -0.000000 0.000000 0.000000 -0.000000 0.000000 0.000000 0.000000 0.000000 0.000000 -0.000000 0.000000 0.000000 -1.132022 -1.349731 -0.335904 12.669638 4.406269 4.194722 -12.394448 -5.378038 -5.742304 0.000000 0.000000 0.000000 0.000000 0.000000 0.000000 -0.000000 0.000000 0.000000 -0.000000 0.000000 0.000000 -0.000000 0.000000 0.000000 -0.000000 0.000000 0.000000 0.000000 0.000000 0.000000 0.000000 0.000000 0.000000 -2.203634 0.237335 51.803075 0.525536 -1.346259 0.040025 -0.000000 0.000000 0.000000 0.000000 0.000000 0.000000 0.690820 -0.843685 51.752994 -1.033741 1.075024 -0.433440 4.651176 6.431354 2.604274 0.000000 0.000000 0.000000
-29.913963 81.266943 336.775351 0.739986 -0.586708 -51.702938 -0.919038 -0.217162 51.704985 -0.000000 0.000000 0.000000 -0.000000 0.000000 0.000000 0.000000 0.000000 0.000000 -0.000000 0.000000 0.000000 -1.284189 -1.491503 -0.374369 13.683269 5.109521 4.324193 -13.518225 -6.872194 -6.393018 0.000000 0.000000 0.000000 0.000000 0.000000 0.000000 -0.000000 0.000000 0.000000 -0.000000 0.000000 0.000000 -0.000000 0.000000 0.000000 -0.000000 0.000000 0.000000 0.000000 0.000000 0.000000 0.000000 0.000000 0.000000 -2.456172 0.266324 51.667316 0.574280 -1.505591 0.045875 -0.000000 0.000000 0.000000 0.000000 0.000000 0.000000 0.701869 -0.940157 51.619141 -1.106546 1.074383 -0.455135 4.972373 7.654577 2.915552 0.000000 0.000000 0.000000
-29.907629 81.277607 336.836378 0.812702 -0.615105 -51.604361 -0.986826 -0.254938 51.606528 -0.000000 0.000000 0.000000 -0.677219 -0.370448 0.479046 0.000000 0.000000 0.000000 0.108916 -0.835720 -0.093093 -1.538530 -0.720729 -0.279649 14.525283 5.693309 4.388944 -15.291793 -9.300781 -7.499926 0.000000 0.000000 0.000000 0.000000 0.000000 0.000000 -0.000000 0.000000 0.000000 -0.000000 0.000000 0.000000 -0.000000 0.000000 0.000000 -0.000000 0.000000 0.000000 0.000000 0.000000 0.000000 0.000000 0.000000 0.000000 -2.634839 0.273799 51.565314 0.610470 -1.619541 0.050115 -0.000000 0.000000 0.000000 0.000000 0.000000 0.000000 0.626640 -0.993748 51.525207 -1.090099 0.938714 -0.433341 4.866585 9.021392 3.165755 0.000000 0.000000 0.000000
-29.938512 81.278453 336.857912 0.837707 -0.599451 -51.568684 -0.990265 -0.283641 51.570615 -0.000000 0.000000 0.000000 -0.834011 -0.589237 0.609940 0.000000 0.000000 0.000000 0.063208 -0.899591 -0.084912 -1.507326 -0.605214 -0.275785 14.619542 6.335354 4.095359 -15.245996 -11.027665 -7.625420 0.000000 0.000000 0.000000 0.000000 0.000000 0.000000 -0.000000 0.000000 0.000000 -0.000000 0.000000 0.000000 -0.000000 0.000000 0.000000 -0.000000 0.000000 0.000000 0.000000 0.000000 0.000000 0.000000 0.000000 0.000000 -2.624197 0.292217 51.527008 0.565894 -1.637429 0.051816 -0.000000 0.000000 0.000000 0.000000 0.000000 0.000000 0.479964 -0.960291 51.496878 -0.987225 0.736505 -0.373139 3.901082 10.410727 3.354241 0.000000 0.000000 0.000000
